<svg width="18" height="14" viewBox="0 0 18 14" fill="none" xmlns="http://www.w3.org/2000/svg">
<path fill-rule="evenodd" clip-rule="evenodd" d="M2.07692 1.35484C1.69457 1.35484 1.38462 1.65813 1.38462 2.03226V3.83871C1.38462 4.21284 1.07466 4.51613 0.692308 4.51613C0.309957 4.51613 0 4.21284 0 3.83871V2.03226C0 0.909873 0.929871 0 2.07692 0H4.54945C4.9318 0 5.24176 0.303291 5.24176 0.677419C5.24176 1.05155 4.9318 1.35484 4.54945 1.35484H2.07692ZM12.7582 0.677419C12.7582 0.303291 13.0682 0 13.4505 0H15.9231C17.0701 0 18 0.909873 18 2.03226V3.83871C18 4.21284 17.69 4.51613 17.3077 4.51613C16.9253 4.51613 16.6154 4.21284 16.6154 3.83871V2.03226C16.6154 1.65813 16.3054 1.35484 15.9231 1.35484H13.4505C13.0682 1.35484 12.7582 1.05155 12.7582 0.677419ZM0.692308 9.48387C1.07466 9.48387 1.38462 9.78716 1.38462 10.1613V11.9677C1.38462 12.3419 1.69457 12.6452 2.07692 12.6452H4.54945C4.9318 12.6452 5.24176 12.9485 5.24176 13.3226C5.24176 13.6967 4.9318 14 4.54945 14H2.07692C0.929869 14 0 13.0901 0 11.9677V10.1613C0 9.78716 0.309957 9.48387 0.692308 9.48387ZM17.3077 9.48387C17.69 9.48387 18 9.78716 18 10.1613V11.9677C18 13.0901 17.0701 14 15.9231 14H13.4505C13.0682 14 12.7582 13.6967 12.7582 13.3226C12.7582 12.9485 13.0682 12.6452 13.4505 12.6452H15.9231C16.3054 12.6452 16.6154 12.3419 16.6154 11.9677V10.1613C16.6154 9.78716 16.9253 9.48387 17.3077 9.48387Z" fill="#4F7A21"/>
<path d="M3.19941 3.74429C3.27179 3.15542 3.89658 2.69149 4.67898 2.64074C7.89519 2.4321 10.1283 2.43149 13.3187 2.63945C14.105 2.6907 14.7306 3.1593 14.8001 3.75128C14.8405 4.09459 14.8745 4.4234 14.9024 4.74194H3.09322C3.12163 4.42144 3.15688 4.09029 3.19941 3.74429Z" fill="#4F7A21"/>
<path fill-rule="evenodd" clip-rule="evenodd" d="M3.02955 5.64516H14.9665C15.0471 7.15438 14.98 8.51015 14.7902 10.2369C14.7244 10.8355 14.0946 11.3123 13.2998 11.363C10.1 11.5672 7.86957 11.5668 4.71058 11.364C3.91392 11.3129 3.28408 10.8336 3.219 10.2334C3.0333 8.52103 2.95127 7.16625 3.02955 5.64516ZM5.33284 9.10753C5.05675 9.10753 4.83294 9.30972 4.83294 9.55914C4.83294 9.80856 5.05675 10.0108 5.33284 10.0108H6.66589C6.94197 10.0108 7.16578 9.80856 7.16578 9.55914C7.16578 9.30972 6.94197 9.10753 6.66589 9.10753H5.33284ZM8.66546 9.10753C8.38938 9.10753 8.16557 9.30972 8.16557 9.55914C8.16557 9.80856 8.38938 10.0108 8.66546 10.0108H11.3316C11.6076 10.0108 11.8315 9.80856 11.8315 9.55914C11.8315 9.30972 11.6076 9.10753 11.3316 9.10753H8.66546Z" fill="#4F7A21"/>
</svg>
