<svg width="21" height="18" viewBox="0 0 21 18" fill="none" xmlns="http://www.w3.org/2000/svg">
<path d="M1.46079 6C1.2793 8.84164 1.39772 11.2478 1.70357 14.3698C1.80121 15.3664 2.74617 16.1624 3.94142 16.2474C8.68092 16.5841 12.0273 16.5849 16.828 16.2457C18.0204 16.1615 18.9654 15.3697 19.0641 14.3756C19.3769 11.225 19.4675 8.81816 19.2862 6M1.46079 6C1.50955 5.2366 1.57995 4.44177 1.67418 3.59319C1.78277 2.61526 2.72015 1.8448 3.89401 1.76051C8.71935 1.41402 12.0697 1.41302 16.8564 1.75838C18.036 1.84349 18.9746 2.62169 19.079 3.6048C19.1685 4.44833 19.2373 5.23915 19.2862 6M1.46079 6H19.2862M4.875 12.5H6.875M9.875 12.5H13.875" stroke="#D0D5DD" stroke-width="1.5" stroke-linecap="round"/>
</svg>
