<svg width="19" height="16" viewBox="0 0 19 16" fill="none" xmlns="http://www.w3.org/2000/svg">
<path d="M0.674179 2.59319C0.782772 1.61526 1.72015 0.844804 2.89401 0.760513C7.71935 0.414024 11.0697 0.413016 15.8564 0.758378C17.036 0.843489 17.9746 1.62169 18.079 2.6048C18.1395 3.17494 18.1905 3.721 18.2324 4.25H0.514857C0.557491 3.71776 0.610373 3.1678 0.674179 2.59319Z" fill="#ACDC79"/>
<path fill-rule="evenodd" clip-rule="evenodd" d="M0.419339 5.75H18.3285C18.4495 8.25637 18.3488 10.5079 18.0641 13.3756C17.9654 14.3697 17.0204 15.1615 15.828 15.2457C11.0273 15.5849 7.68092 15.5841 2.94142 15.2474C1.74617 15.1624 0.801212 14.3664 0.703575 13.3698C0.424968 10.526 0.301886 8.2761 0.419339 5.75ZM3.875 11.5C3.46079 11.5 3.125 11.8358 3.125 12.25C3.125 12.6642 3.46079 13 3.875 13H5.875C6.28921 13 6.625 12.6642 6.625 12.25C6.625 11.8358 6.28921 11.5 5.875 11.5H3.875ZM8.875 11.5C8.46079 11.5 8.125 11.8358 8.125 12.25C8.125 12.6642 8.46079 13 8.875 13H12.875C13.2892 13 13.625 12.6642 13.625 12.25C13.625 11.8358 13.2892 11.5 12.875 11.5H8.875Z" fill="#ACDC79"/>
</svg>
