<svg width="16" height="16" viewBox="0 0 16 16" fill="none" xmlns="http://www.w3.org/2000/svg">
<path d="M2.14402 6.54274C2.19629 5.97771 2.64753 5.53256 3.2126 5.48386C5.53542 5.28367 7.14822 5.28309 9.45241 5.48263C10.0202 5.5318 10.4721 5.98143 10.5223 6.54945C10.7251 8.84204 10.7064 10.4608 10.5151 12.7726C10.4676 13.347 10.0127 13.8044 9.43876 13.8531C7.12779 14.0491 5.51692 14.0486 3.23542 13.854C2.66005 13.805 2.20517 13.3451 2.15817 12.7692C1.97138 10.4808 1.92981 8.85805 2.14402 6.54274Z" stroke="#101828" stroke-width="1.5"/>
<path d="M5.45215 3.49246C5.46012 3.39922 5.46852 3.3049 5.47736 3.2094C5.52963 2.64437 5.98086 2.19922 6.54594 2.15052C8.86875 1.95033 10.4816 1.94974 12.7857 2.14929C13.3536 2.19846 13.8054 2.64809 13.8557 3.21611C14.0585 5.5087 14.0397 7.12746 13.8485 9.43926C13.801 10.0136 13.3461 10.4711 12.7721 10.5197C12.6716 10.5283 12.5723 10.5364 12.4743 10.5442" stroke="#101828" stroke-width="1.5" stroke-linecap="round"/>
</svg>
