<svg width="20" height="20" viewBox="0 0 20 20" fill="none" xmlns="http://www.w3.org/2000/svg">
<path d="M3.22669 3.86263L3.74864 3.07896C4.23024 2.35587 5.27136 2.3002 5.82718 2.96782L7.73497 5.25932C8.19712 5.81442 8.02831 6.56981 7.65689 7.18942C7.33769 7.72192 7.32822 8.39098 7.66625 8.91171C8.58271 10.3235 9.43584 11.1764 10.8333 12.0833C11.3535 12.4209 12.0214 12.4108 12.5529 12.0915C13.1725 11.7194 14.189 11.8119 14.7441 12.2749L17.0326 14.1838C17.6996 14.7402 17.644 15.7823 16.9216 16.2643L16.1598 16.7726C14.7354 17.7232 12.8735 17.7576 11.4646 16.7842C7.80222 14.2541 5.63006 12.0857 3.19995 8.52944C2.24082 7.12581 2.28428 5.27757 3.22669 3.86263Z" stroke="#475467" stroke-width="1.5"/>
</svg>
