<svg width="18" height="16" viewBox="0 0 18 16" fill="none" xmlns="http://www.w3.org/2000/svg">
<path d="M13.1667 5.83348H14M16.2502 5.02671C16.6012 8.20915 16.5688 9.75391 16.2378 12.963C16.1555 13.7603 15.3682 14.3953 14.3748 14.4629C10.375 14.7349 7.58697 14.7343 3.63823 14.4642C2.6424 14.3961 1.8551 13.7577 1.77375 12.9584C1.45047 9.78171 1.37852 8.23137 1.74926 5.0174C1.83974 4.23306 2.62072 3.61513 3.59873 3.54753C3.69724 3.54072 3.795 3.53408 3.89207 3.5276C4.4902 3.48769 5.04478 3.1979 5.41362 2.72535L5.87442 2.13498C6.26922 1.62917 6.87507 1.3335 7.51672 1.3335H10.4946C11.1298 1.3335 11.7303 1.62331 12.1256 2.1206L12.6174 2.73945C12.9862 3.20354 13.5354 3.48753 14.1269 3.52726C14.2168 3.5333 14.3073 3.53949 14.3984 3.54582C15.3812 3.61408 16.1632 4.23822 16.2502 5.02671ZM9 11.7501C10.6064 11.7501 11.9167 10.4399 11.9167 8.83348C11.9167 7.22707 10.6064 5.91681 9 5.91681C7.39359 5.91681 6.08333 7.22707 6.08333 8.83348C6.08333 10.4399 7.39359 11.7501 9 11.7501Z" stroke="#282930" stroke-width="1.5" stroke-linecap="round" stroke-linejoin="round"/>
</svg>
