<svg width="20" height="18" viewBox="0 0 20 18" fill="none" xmlns="http://www.w3.org/2000/svg">
    <path
        d="M2.50008 1.5L17.5001 16.5M8.82008 7.82248C8.50734 8.13499 8.33156 8.55894 8.33141 9.00106C8.33125 9.44317 8.50673 9.86724 8.81924 10.18C9.13176 10.4927 9.5557 10.6685 9.99782 10.6687C10.4399 10.6688 10.864 10.4933 11.1767 10.1808M7.80258 3.47083C8.5171 3.26643 9.25691 3.16403 10.0001 3.16667C13.3334 3.16667 16.1109 5.11083 18.3334 9C17.6851 10.1342 16.9901 11.1033 16.2476 11.9067M14.4642 13.4575C13.1051 14.3742 11.6184 14.8333 10.0001 14.8333C6.66675 14.8333 3.88925 12.8892 1.66675 9C2.80758 7.00416 4.09425 5.52083 5.52675 4.54917"
        stroke="#666D80" stroke-width="1.5" stroke-linecap="round" stroke-linejoin="round" />
</svg>
