<svg width="18" height="18" viewBox="0 0 18 18" fill="none" xmlns="http://www.w3.org/2000/svg">
<path d="M5.36884 5.32979C6.43772 4.63732 7.67594 4.125 9 4.125C11.6339 4.125 13.9281 6.15236 15.2254 7.59228C15.9249 8.36863 15.9249 9.63137 15.2254 10.4077C14.6046 11.0968 13.7554 11.9204 12.75 12.592M3.75 6.60162C3.38263 6.94168 3.05527 7.28073 2.77459 7.59228C2.07514 8.36863 2.07514 9.63137 2.77459 10.4077C4.07186 11.8476 6.36608 13.875 9 13.875C9.61641 13.875 10.2142 13.764 10.785 13.5754" stroke="white" stroke-width="1.5" stroke-linecap="round"/>
<path d="M3 3L7.40901 7.40901M15 15L10.591 10.591M7.40901 7.40901C7.81618 7.00184 8.37868 6.75 9 6.75C10.2426 6.75 11.25 7.75736 11.25 9C11.25 9.62132 10.9982 10.1838 10.591 10.591M7.40901 7.40901L10.591 10.591" stroke="white" stroke-width="1.5" stroke-linecap="round"/>
<path d="M6.7811 9.375C6.93917 10.3172 7.68281 11.0608 8.625 11.2189" stroke="white" stroke-width="1.5" stroke-linecap="round"/>
</svg>
