<svg width="20" height="20" viewBox="0 0 20 20" fill="none" xmlns="http://www.w3.org/2000/svg">
<path d="M7.3765 3.3335C7.25247 3.34023 7.12752 3.34743 7.00152 3.35508C6.40876 3.39107 5.79287 3.43716 5.14109 3.49334C4.26083 3.56921 3.5579 4.26269 3.47647 5.14292C3.41601 5.79639 3.36864 6.41445 3.33331 7.00968M13.0006 3.35297C13.5941 3.38886 14.21 3.435 14.8614 3.49141C15.746 3.56802 16.4498 4.26848 16.5281 5.15337C16.5855 5.80256 16.6316 6.41707 16.6666 7.00968M3.36463 13.0103C3.4013 13.5959 3.44626 14.2027 3.49851 14.8429C3.57173 15.74 4.28034 16.4564 5.17665 16.5329C5.81447 16.5873 6.41865 16.6319 7.00152 16.6668M13.0006 16.6659C13.5871 16.6308 14.1962 16.586 14.8402 16.5314C15.7343 16.4556 16.4429 15.7429 16.5169 14.8482C16.5701 14.2052 16.6148 13.5966 16.6504 13.0103" stroke="#475467" stroke-width="1.5" stroke-linecap="round"/>
<path d="M6.66663 8.62484V11.3748C6.66663 12.1843 6.97805 12.9237 7.49185 13.4881M7.66711 6.33317C7.79952 6.20829 7.9427 6.09395 8.0952 5.99157C8.63512 5.62909 9.29175 5.4165 9.99996 5.4165C11.7893 5.4165 13.2493 6.77349 13.3298 8.47658M13.3333 10.9165V11.3748C13.3333 13.1468 11.8409 14.5832 9.99996 14.5832C9.90214 14.5832 9.8053 14.5791 9.70962 14.5712" stroke="#475467" stroke-width="1.5" stroke-linecap="round"/>
<rect x="8.75" y="7.9165" width="2.5" height="4.16667" rx="1.25" stroke="#475467" stroke-width="1.5"/>
</svg>
