<svg width="20" height="20" viewBox="0 0 20 20" fill="none" xmlns="http://www.w3.org/2000/svg">
<path d="M4.09723 9.58333V15.2421C4.09723 16.2937 4.88062 17.1857 5.92722 17.2877C7.43977 17.4351 8.72438 17.499 10 17.4922M4.09723 9.58333H3.75C3.28977 9.58333 2.91667 9.21024 2.91667 8.75V6.66667C2.91667 6.20643 3.28977 5.83333 3.75 5.83333H5.27778M4.09723 9.58333H10M15.9028 9.58333H16.25C16.7102 9.58333 17.0833 9.21024 17.0833 8.75V6.66667C17.0833 6.20643 16.7102 5.83333 16.25 5.83333H14.7222M15.9028 9.58333V15.2108C15.9028 16.2757 15.1001 17.173 14.0397 17.2705C12.5542 17.4071 11.2816 17.4853 10 17.4922M15.9028 9.58333H10M5.27778 5.83333C4.49075 5 4.18113 3.57244 4.88426 2.94773C5.88319 2.06023 7.63789 2.5331 8.80349 4.00392C9.25667 4.57577 9.55408 5.21428 9.68964 5.83333M5.27778 5.83333H9.68964M9.68964 5.83333H10.2944M10.2944 5.83333C10.43 5.21428 10.7274 4.57577 11.1806 4.00392C12.3462 2.5331 14.1009 2.06023 15.0998 2.94773C15.8029 3.57244 15.5093 5 14.7222 5.83333M10.2944 5.83333H14.7222M10 9.58333V17.4922" stroke="#475467" stroke-width="1.5"/>
</svg>
