<svg width="25" height="24" viewBox="0 0 25 24" fill="none" xmlns="http://www.w3.org/2000/svg">
<path d="M4 16L8.43934 11.5606C9.02513 10.9748 9.97487 10.9748 10.5607 11.5606L14 15M14 15L15 16M14 15L15.9393 13.0606C16.5251 12.4748 17.4749 12.4748 18.0607 13.0606L21 16M6.06642 20.6962C10.8059 21.1003 14.1523 21.1012 18.953 20.6942C20.1454 20.5931 21.0904 19.6431 21.1891 18.4502C21.5864 13.6487 21.6253 10.2867 21.204 5.52515C21.0996 4.34542 20.161 3.41158 18.9814 3.30944C14.1947 2.89501 10.8443 2.89622 6.01901 3.31201C4.84515 3.41315 3.90777 4.3377 3.79918 5.51122C3.3542 10.3199 3.44055 13.6903 3.82857 18.4432C3.92621 19.6391 4.87117 20.5943 6.06642 20.6962ZM16 8.49997C16 9.3284 15.3284 9.99997 14.5 9.99997C13.6716 9.99997 13 9.3284 13 8.49997C13 7.67154 13.6716 6.99997 14.5 6.99997C15.3284 6.99997 16 7.67154 16 8.49997Z" stroke="white" stroke-width="1.5" stroke-linecap="round"/>
</svg>
