<svg width="20" height="20" viewBox="0 0 20 20" fill="none" xmlns="http://www.w3.org/2000/svg">
<path d="M1 19H19M2 19V18C2 17.1716 2.67157 16.5 3.5 16.5H16.5C17.3284 16.5 18 17.1716 18 18V19M8.5 7V16.5M11.5 7V16.5M3 7V16.5M5.5 7V16.5M14.5 7V16.5M17 7V16.5M8.41 1.45843L1.25634 5.99986C0.784392 6.29947 1.00713 7 1.57434 7H18.4257C18.9929 7 19.2156 6.29947 18.7437 5.99986L11.59 1.45843C10.6272 0.84719 9.37283 0.84719 8.41 1.45843Z" stroke="#101828" stroke-width="1.5" stroke-linecap="round"/>
</svg>
