<svg width="20" height="20" viewBox="0 0 20 20" fill="none" xmlns="http://www.w3.org/2000/svg">
<path d="M1.82853 6.61072L8.2925 1.54689C9.2233 0.817703 10.5267 0.817703 11.4575 1.54689L17.9215 6.61072C18.6593 7.18877 18.8643 8.04912 18.8746 9.04354C18.8751 9.09745 18.8734 9.14954 18.8693 9.2033C18.8275 9.75484 18.5384 13.1249 17.4699 16.9084C17.0923 17.9615 16.2039 19 14.9817 19H13.793C13.0527 19 12.3463 18.3956 12.3463 17.65L12.4526 14.846C12.4526 13.4122 11.2986 12.2498 9.875 12.2498C8.45142 12.2498 7.29739 13.4122 7.29739 14.846L7.41668 17.65C7.41668 18.3956 6.69729 19 5.95703 19H4.76835C3.5461 19 2.65769 17.9615 2.28011 16.9084C1.21163 13.1249 0.922498 9.75483 0.880679 9.2033C0.876603 9.14954 0.874856 9.09745 0.875413 9.04354C0.885682 8.04913 1.09066 7.18877 1.82853 6.61072Z" stroke="#D0D5DD" stroke-width="1.5" stroke-linecap="round"/>
</svg>
