<svg width="19" height="18" viewBox="0 0 19 18" fill="none" xmlns="http://www.w3.org/2000/svg">
<path d="M1.82853 5.61072L8.2925 0.546889C9.2233 -0.182297 10.5267 -0.182297 11.4575 0.546889L17.9215 5.61072C18.6593 6.18877 18.8643 7.04912 18.8746 8.04354C18.8751 8.09745 18.8734 8.14954 18.8693 8.2033C18.8275 8.75484 18.5384 12.1249 17.4699 15.9084C17.0923 16.9615 16.2039 18 14.9817 18H13.793C13.0527 18 12.3463 17.3956 12.3463 16.65L12.4526 13.846C12.4526 12.4122 11.2986 11.2498 9.875 11.2498C8.45142 11.2498 7.29739 12.4122 7.29739 13.846L7.41668 16.65C7.41668 17.3956 6.69729 18 5.95703 18H4.76835C3.5461 18 2.65769 16.9615 2.28011 15.9084C1.21163 12.1249 0.922498 8.75483 0.880679 8.2033C0.876603 8.14954 0.874856 8.09745 0.875413 8.04354C0.885682 7.04913 1.09066 6.18877 1.82853 5.61072Z" fill="#ACDC79"/>
</svg>
