<svg width="20" height="20" viewBox="0 0 20 20" fill="none" xmlns="http://www.w3.org/2000/svg">
<path d="M2.5 7.9874C2.5 10.788 4.73738 13.0583 7.49733 13.0583C8.05772 13.0583 8.59658 12.9647 9.09953 12.7921C9.43756 12.676 9.82074 12.7354 10.0716 12.99L10.9554 13.8868C11.2121 14.1472 11.5939 14.2336 11.9353 14.1085C12.2767 13.9834 12.6585 14.0698 12.9152 14.3302L12.962 14.3776C13.1922 14.6113 13.3014 14.9409 13.2568 15.2683L13.2352 15.4275C13.177 15.8551 13.3195 16.2857 13.6204 16.591L13.6678 16.6392C14.0679 17.0451 14.6597 17.1869 15.1965 17.0053L17.2151 16.3226C17.5088 16.2233 17.5967 15.845 17.3778 15.6229L12.4159 10.5879C12.1707 10.339 12.1132 9.9655 12.2251 9.6345C12.3998 9.11807 12.4947 8.56397 12.4947 7.9874C12.4947 5.18682 10.2573 2.9165 7.49733 2.9165C4.73738 2.9165 2.5 5.18682 2.5 7.9874Z" stroke="#475467" stroke-width="1.5"/>
<path d="M9.16667 7.9165C9.16667 8.83698 8.42047 9.58317 7.5 9.58317C6.57953 9.58317 5.83333 8.83698 5.83333 7.9165C5.83333 6.99603 6.57953 6.24984 7.5 6.24984C8.42047 6.24984 9.16667 6.99603 9.16667 7.9165Z" stroke="#475467" stroke-width="1.5"/>
</svg>
