<svg width="20" height="20" viewBox="0 0 20 20" fill="none" xmlns="http://www.w3.org/2000/svg">
<path d="M7.08333 6.25V5.41667C7.08333 3.80584 8.38916 2.5 10 2.5V2.5C11.6108 2.5 12.9167 3.80584 12.9167 5.41667V6.25" stroke="#667085" stroke-width="1.5" stroke-linecap="round"/>
<path d="M3.95772 8.17838C4.03311 7.47209 4.68393 6.91565 5.49894 6.85477C8.84916 6.60453 11.1753 6.6038 14.4987 6.85323C15.3177 6.9147 15.9693 7.47674 16.0418 8.18676C16.3343 11.0525 16.3073 13.0759 16.0315 15.9657C15.9629 16.6836 15.3068 17.2555 14.479 17.3163C11.1459 17.5613 8.82247 17.5607 5.53186 17.3175C4.702 17.2562 4.04592 16.6813 3.97813 15.9615C3.70872 13.101 3.64877 11.0725 3.95772 8.17838Z" stroke="#667085" stroke-width="1.5"/>
<path d="M10 13.125C10.9205 13.125 11.6667 12.3788 11.6667 11.4583C11.6667 10.5378 10.9205 9.79163 10 9.79163C9.07952 9.79163 8.33333 10.5378 8.33333 11.4583C8.33333 12.3788 9.07952 13.125 10 13.125ZM10 13.125V14.375" stroke="#667085" stroke-width="1.5" stroke-linecap="round"/>
</svg>
