<svg width="20" height="20" viewBox="0 0 20 20" fill="none" xmlns="http://www.w3.org/2000/svg">
<path d="M7.08337 6.25V5.41667C7.08337 3.80584 8.38921 2.5 10 2.5V2.5C11.6109 2.5 12.9167 3.80584 12.9167 5.41667V6.25" stroke="#475467" stroke-width="1.5" stroke-linecap="round"/>
<path d="M3.95772 8.17825C4.03311 7.47197 4.68393 6.91553 5.49894 6.85465C8.84916 6.60441 11.1753 6.60368 14.4987 6.85311C15.3177 6.91458 15.9693 7.47661 16.0418 8.18664C16.3343 11.0524 16.3073 13.0758 16.0315 15.9656C15.9629 16.6835 15.3068 17.2553 14.479 17.3162C11.1459 17.5611 8.82247 17.5606 5.53186 17.3174C4.702 17.256 4.04592 16.6812 3.97813 15.9614C3.70872 13.1009 3.64877 11.0724 3.95772 8.17825Z" stroke="#475467" stroke-width="1.5"/>
<path d="M10 13.1248C10.9205 13.1248 11.6667 12.3786 11.6667 11.4582C11.6667 10.5377 10.9205 9.7915 10 9.7915C9.07957 9.7915 8.33337 10.5377 8.33337 11.4582C8.33337 12.3786 9.07957 13.1248 10 13.1248ZM10 13.1248V14.3748" stroke="#475467" stroke-width="1.5" stroke-linecap="round"/>
</svg>
