<svg width="21" height="20" viewBox="0 0 21 20" fill="none" xmlns="http://www.w3.org/2000/svg">
<path d="M8.69998 4.5C8.69998 6.433 7.13298 8 5.19998 8C3.26699 8 1.69998 6.433 1.69998 4.5C1.69998 2.567 3.26699 1 5.19998 1C7.13298 1 8.69998 2.567 8.69998 4.5Z" stroke="#101828" stroke-width="1.5"/>
<path d="M8.69998 15.5C8.69998 17.433 7.13298 19 5.19998 19C3.26699 19 1.69998 17.433 1.69998 15.5C1.69998 13.567 3.26699 12 5.19998 12C7.13298 12 8.69998 13.567 8.69998 15.5Z" stroke="#101828" stroke-width="1.5"/>
<path d="M19.7 4.5C19.7 6.433 18.133 8 16.2 8C14.267 8 12.7 6.433 12.7 4.5C12.7 2.567 14.267 1 16.2 1C18.133 1 19.7 2.567 19.7 4.5Z" stroke="#101828" stroke-width="1.5"/>
<path d="M19.7 15.5C19.7 17.433 18.133 19 16.2 19C14.267 19 12.7 17.433 12.7 15.5C12.7 13.567 14.267 12 16.2 12C18.133 12 19.7 13.567 19.7 15.5Z" stroke="#101828" stroke-width="1.5"/>
</svg>
