<svg width="16" height="20" viewBox="0 0 16 20" fill="none" xmlns="http://www.w3.org/2000/svg">
<path d="M4.49999 15.5C4.49999 17.433 6.06699 19 7.99999 19C9.93299 19 11.5 17.433 11.5 15.5M2.23556 15.6416C6.56519 16.111 9.44447 16.1121 13.7651 15.6421C14.4128 15.5717 14.8475 14.9304 14.7494 14.2863C14.4774 12.4987 14.3878 9.91367 14.3763 7.49802C14.3594 3.95697 11.5411 1 7.99999 1C4.4589 1 1.64055 3.95697 1.62367 7.49802C1.61216 9.91339 1.52264 12.4981 1.25063 14.2857C1.15259 14.93 1.58762 15.5714 2.23556 15.6416Z" stroke="#101828" stroke-width="1.5"/>
</svg>
