<svg width="16" height="20" viewBox="0 0 16 20" fill="none" xmlns="http://www.w3.org/2000/svg">
<path d="M11.625 4.5C11.625 6.433 10.058 8 8.12499 8C6.192 8 4.62499 6.433 4.62499 4.5C4.62499 2.567 6.192 1 8.12499 1C10.058 1 11.625 2.567 11.625 4.5Z" stroke="#D0D5DD" stroke-width="1.5"/>
<path d="M1.54913 15.4898C1.89193 13.1147 3.73066 11.1739 6.12398 10.9995C7.49139 10.8999 8.76335 10.8997 10.1281 10.999C12.5205 11.1729 14.3579 13.1137 14.7006 15.4878L14.7672 15.9495C14.9647 17.3178 14.0142 18.595 12.6396 18.7424C9.41344 19.0883 6.84711 19.0843 3.6162 18.7397C2.23944 18.5928 1.28575 17.3146 1.48354 15.9442L1.54913 15.4898Z" stroke="#D0D5DD" stroke-width="1.5"/>
</svg>
