<svg width="15" height="18" viewBox="0 0 15 18" fill="none" xmlns="http://www.w3.org/2000/svg">
<path d="M10.7989 3.80083C10.7989 5.89998 9.15384 7.60167 7.12454 7.60167C5.09524 7.60167 3.45016 5.89998 3.45016 3.80083C3.45016 1.70169 5.09524 0 7.12454 0C9.15384 0 10.7989 1.70169 10.7989 3.80083Z" fill="#ACDC79"/>
<path d="M0.22111 14.1881C0.58099 11.6089 2.51133 9.50122 5.02389 9.31187C6.45943 9.20369 7.79476 9.20351 9.22755 9.31128C11.7391 9.50018 13.668 11.6077 14.0278 14.1859L14.0977 14.6873C14.3051 16.1732 13.3072 17.5602 11.8641 17.7202C8.47724 18.0959 5.78304 18.0916 2.39117 17.7173C0.945812 17.5578 -0.0553902 16.1697 0.152256 14.6815L0.22111 14.1881Z" fill="#ACDC79"/>
</svg>
