<svg width="25" height="24" viewBox="0 0 25 24" fill="none" xmlns="http://www.w3.org/2000/svg">
<path d="M4.65217 9.54545C4.16127 9.54545 3.83398 9.21817 3.83398 8.72726V5.45454C3.83398 4.06363 4.89761 3 6.28852 3H9.56124C10.0522 3 10.3794 3.32728 10.3794 3.81819C10.3794 4.3091 10.0522 4.63638 9.56124 4.63638H6.28852C5.79761 4.63638 5.47033 4.96366 5.47033 5.45457V8.72729C5.47036 9.21817 5.14308 9.54545 4.65217 9.54545Z" fill="white"/>
<path d="M21.0158 9.54545C20.5249 9.54545 20.1976 9.21817 20.1976 8.72726V5.45454C20.1976 4.96363 19.8703 4.63635 19.3794 4.63635H16.1067C15.6158 4.63635 15.2885 4.30906 15.2885 3.81816C15.2885 3.32725 15.6158 3 16.1067 3H19.3794C20.7703 3 21.834 4.06363 21.834 5.45454V8.72726C21.834 9.21817 21.5067 9.54545 21.0158 9.54545Z" fill="white"/>
<path d="M9.56125 21H6.28852C4.89762 21 3.83399 19.9364 3.83399 18.5454V15.2727C3.83399 14.7818 4.16127 14.4545 4.65218 14.4545C5.14309 14.4545 5.47037 14.7818 5.47037 15.2727V18.5454C5.47037 19.0364 5.79765 19.3636 6.28856 19.3636H9.56128C10.0522 19.3636 10.3795 19.6909 10.3795 20.1818C10.3794 20.6727 10.0522 21 9.56125 21Z" fill="white"/>
<path d="M19.3794 21H16.1067C15.6158 21 15.2885 20.6727 15.2885 20.1818C15.2885 19.6909 15.6158 19.3636 16.1067 19.3636H19.3794C19.8703 19.3636 20.1976 19.0364 20.1976 18.5454V15.2727C20.1976 14.7818 20.5249 14.4545 21.0158 14.4545C21.5067 14.4545 21.834 14.7818 21.834 15.2727V18.5454C21.834 19.9364 20.7703 21 19.3794 21Z" fill="white"/>
<path d="M11.1975 11.1818H7.92482C7.43392 11.1818 7.10663 10.8546 7.10663 10.3636V7.09092C7.10663 6.60002 7.43392 6.27274 7.92482 6.27274H11.1975C11.6885 6.27274 12.0157 6.60002 12.0157 7.09092V10.3636C12.0157 10.8546 11.6885 11.1818 11.1975 11.1818ZM8.74301 9.54546H10.3794V7.90908H8.74301V9.54546Z" fill="white"/>
<path d="M11.1975 17.7273H7.92482C7.43392 17.7273 7.10663 17.4 7.10663 16.9091V13.6364C7.10663 13.1455 7.43392 12.8182 7.92482 12.8182H11.1975C11.6885 12.8182 12.0157 13.1455 12.0157 13.6364V16.9091C12.0157 17.4 11.6885 17.7273 11.1975 17.7273ZM8.74301 16.0909H10.3794V14.4546H8.74301V16.0909Z" fill="white"/>
<path d="M17.743 11.1818H14.4703C13.9794 11.1818 13.6521 10.8546 13.6521 10.3636V7.09092C13.6521 6.60002 13.9794 6.27274 14.4703 6.27274H17.743C18.2339 6.27274 18.5612 6.60002 18.5612 7.09092V10.3636C18.5612 10.8546 18.2339 11.1818 17.743 11.1818ZM15.2885 9.54546H16.9249V7.90908H15.2885V9.54546Z" fill="white"/>
<path d="M14.4703 15.2727C13.9794 15.2727 13.6521 14.9454 13.6521 14.4545V13.6363C13.6521 13.1454 13.9794 12.8181 14.4703 12.8181C14.9612 12.8181 15.2885 13.1454 15.2885 13.6363V14.4545C15.2885 14.9454 14.9612 15.2727 14.4703 15.2727Z" fill="white"/>
<path d="M17.743 14.4546H16.9248C16.4339 14.4546 16.1066 14.1273 16.1066 13.6364C16.1066 13.1455 16.4339 12.8182 16.9248 12.8182H17.743C18.2339 12.8182 18.5612 13.1455 18.5612 13.6364C18.5612 14.1273 18.2339 14.4546 17.743 14.4546Z" fill="white"/>
<path d="M17.7431 17.7273H15.2886C14.7977 17.7273 14.4704 17.4 14.4704 16.9091C14.4704 16.4182 14.7977 16.0909 15.2886 16.0909H17.7431C18.234 16.0909 18.5613 16.4182 18.5613 16.9091C18.5613 17.4 18.234 17.7273 17.7431 17.7273Z" fill="white"/>
</svg>
