<svg width="20" height="20" viewBox="0 0 20 20" fill="none" xmlns="http://www.w3.org/2000/svg">
<path fill-rule="evenodd" clip-rule="evenodd" d="M6.20307 2.42905C6.3811 2.80306 6.22222 3.25057 5.84822 3.42859C4.933 3.86423 4.11056 4.48169 3.4318 5.24722C2.57267 6.21616 1.97208 7.39033 1.6873 8.65915C1.40251 9.92799 1.44305 11.2491 1.80505 12.4977C2.16704 13.7462 2.83838 14.8806 3.75511 15.794C4.67181 16.7074 5.80366 17.3698 7.0436 17.7192C8.28352 18.0687 9.59118 18.094 10.8434 17.7926C12.0957 17.4913 13.2517 16.8732 14.2024 15.996C14.9769 15.2813 15.5942 14.4138 16.0177 13.4498C16.1843 13.0705 16.6267 12.8981 17.006 13.0647C17.3852 13.2313 17.5576 13.6738 17.391 14.053C16.885 15.2051 16.1468 16.2428 15.2196 17.0984C14.0815 18.1485 12.6963 18.8896 11.1943 19.251C9.69236 19.6124 8.12375 19.5821 6.63667 19.163C5.14962 18.7439 3.79364 17.9499 2.69638 16.8566C1.59916 15.7633 0.7968 14.4069 0.364378 12.9154C-0.0680369 11.4239 -0.11643 9.84611 0.223713 8.33065C0.56386 6.81517 1.28147 5.41143 2.30944 4.25206C3.12167 3.33602 4.10653 2.59637 5.20353 2.0742C5.57754 1.89617 6.02505 2.05505 6.20307 2.42905Z" fill="#D0D5DD"/>
<path fill-rule="evenodd" clip-rule="evenodd" d="M8 2.31774C8 1.01329 9.09173 -0.21425 10.5534 0.0316397C11.36 0.167338 12.1506 0.393969 12.9099 0.708468C14.2288 1.25476 15.4271 2.05546 16.4365 3.06487C17.4459 4.07428 18.2466 5.27262 18.7929 6.59148C19.1074 7.35074 19.3341 8.14139 19.4698 8.94802C19.7156 10.4097 18.4881 11.5014 17.1837 11.5014H10.4367C9.09096 11.5014 8 10.4104 8 9.06466L8 2.31774ZM10.3045 1.51085C9.92886 1.44766 9.5 1.75908 9.5 2.31774L9.5 9.06466C9.5 9.582 9.91939 10.0014 10.4367 10.0014H17.1837C17.7423 10.0014 18.0537 9.57253 17.9905 9.19687C17.8736 8.50154 17.6782 7.82 17.4071 7.1655C16.9362 6.02863 16.246 4.99565 15.3759 4.12553C14.5057 3.25541 13.4728 2.56519 12.3359 2.09429C11.6814 1.82319 10.9998 1.62783 10.3045 1.51085Z" fill="#D0D5DD"/>
</svg>
