<svg width="275" height="275" viewBox="0 0 275 275" fill="none" xmlns="http://www.w3.org/2000/svg">
<path d="M273 81.4746L273 27.6C273 18.6392 273 14.1587 271.256 10.7362C269.722 7.72556 267.274 5.27787 264.264 3.7439C260.841 2 256.361 2 247.4 2L193.44 2M81.5597 1.99999L27.6 1.99999C18.6392 1.99999 14.1588 1.99999 10.7362 3.74388C7.72559 5.27786 5.2779 7.72555 3.74393 10.7361C2.00003 14.1587 2.00003 18.6391 2.00003 27.6L2.00003 81.4746M2.00002 193.525L2.00002 247.4C2.00002 256.361 2.00002 260.841 3.74391 264.264C5.27789 267.274 7.72558 269.722 10.7362 271.256C14.1588 273 18.6392 273 27.6 273L81.5597 273M273 193.525L273 247.4C273 256.361 273 260.841 271.256 264.264C269.722 267.274 267.274 269.722 264.264 271.256C260.841 273 256.361 273 247.4 273L193.44 273" stroke="#ACDC79" stroke-width="2.5" stroke-linecap="round"/>
</svg>
