<svg width="18" height="18" viewBox="0 0 18 18" fill="none" xmlns="http://www.w3.org/2000/svg">
<path d="M11.5 4C11.5 5.38071 12.6193 6.5 14 6.5C15.3807 6.5 16.5 5.38071 16.5 4C16.5 2.61929 15.3807 1.5 14 1.5C12.6193 1.5 11.5 2.61929 11.5 4ZM11.5 4L6.91667 7.49684M11.5 14C11.5 15.3807 12.6193 16.5 14 16.5C15.3807 16.5 16.5 15.3807 16.5 14C16.5 12.6193 15.3807 11.5 14 11.5C12.6193 11.5 11.5 12.6193 11.5 14ZM11.5 14L6.91667 10.5032M6.91667 10.5032C7.18117 10.0642 7.33333 9.54986 7.33333 9C7.33333 8.45014 7.18117 7.93581 6.91667 7.49684M6.91667 10.5032C6.40629 11.3502 5.47764 11.9167 4.41667 11.9167C2.80584 11.9167 1.5 10.6108 1.5 9C1.5 7.38917 2.80584 6.08333 4.41667 6.08333C5.47764 6.08333 6.40629 6.64983 6.91667 7.49684" stroke="#101828" stroke-width="1.5"/>
</svg>
