<svg width="20" height="20" viewBox="0 0 20 20" fill="none" xmlns="http://www.w3.org/2000/svg">
<path d="M2.74926 5.49433C2.83974 4.67938 3.62072 4.03734 4.59873 3.96709C8.61899 3.67835 11.4104 3.67751 15.3984 3.96532C16.3812 4.03624 17.1632 4.68474 17.2502 5.504C17.6012 8.81063 17.5688 11.1454 17.2378 14.4797C17.1555 15.3081 16.3682 15.9679 15.3748 16.0381C11.375 16.3207 8.58697 16.3201 4.63823 16.0395C3.6424 15.9687 2.8551 15.3054 2.77375 14.4749C2.45047 11.1743 2.37852 8.83372 2.74926 5.49433Z" stroke="#667085" stroke-width="1.5"/>
<path d="M5 6.66663L8.59224 9.95951C9.38874 10.6896 10.6113 10.6896 11.4078 9.95951L15 6.66663" stroke="#667085" stroke-width="1.5" stroke-linecap="round"/>
</svg>
