<svg width="24" height="24" viewBox="0 0 24 24" fill="none" xmlns="http://www.w3.org/2000/svg">
<circle cx="12" cy="12" r="3" stroke="#101828" stroke-width="1.5"/>
<path d="M14.0001 4.02152C14.0001 3.55449 13.6774 3.14367 13.2145 3.08124C12.8173 3.02766 12.4119 3 12.0001 3C11.5882 3 11.1828 3.02767 10.7856 3.08124C10.3228 3.14367 10.0001 3.5545 10.0001 4.02153V4.17129C10.0001 4.83491 9.5557 5.40496 8.95818 5.69371C8.64528 5.84492 8.34534 6.01873 8.06049 6.21303C7.51239 6.58688 6.79674 6.68645 6.22217 6.35472L6.09139 6.27922C5.68732 6.04593 5.17072 6.11959 4.88474 6.48825C4.38937 7.12682 3.97806 7.83385 3.66742 8.59276C3.49067 9.02456 3.68522 9.50882 4.08928 9.7421L4.22171 9.81856C4.79582 10.15 5.06766 10.8189 5.01911 11.48C5.0065 11.6517 5.00009 11.8251 5.00009 12C5.00009 12.1749 5.0065 12.3483 5.01911 12.5199C5.06765 13.1811 4.79582 13.8499 4.22171 14.1814L4.08926 14.2579C3.6852 14.4911 3.49066 14.9754 3.6674 15.4072C3.97804 16.1661 4.38934 16.8731 4.8847 17.5117C5.17069 17.8804 5.68729 17.954 6.09137 17.7207L6.22213 17.6452C6.7967 17.3135 7.51236 17.4131 8.06045 17.7869C8.34532 17.9813 8.64527 18.1551 8.95818 18.3063C9.5557 18.595 10.0001 19.1651 10.0001 19.8287V19.9785C10.0001 20.4455 10.3228 20.8563 10.7856 20.9188C11.1828 20.9723 11.5882 21 12.0001 21C12.4119 21 12.8173 20.9723 13.2145 20.9188C13.6774 20.8563 14.0001 20.4455 14.0001 19.9785V19.8287C14.0001 19.1651 14.4444 18.5951 15.042 18.3063C15.3549 18.1551 15.6548 17.9813 15.9397 17.787C16.4878 17.4131 17.2034 17.3136 17.778 17.6453L17.9088 17.7208C18.3129 17.9541 18.8294 17.8804 19.1154 17.5118C19.6108 16.8732 20.0221 16.1662 20.3328 15.4073C20.5095 14.9755 20.315 14.4912 19.9109 14.2579L19.7785 14.1815C19.2044 13.85 18.9325 13.1811 18.9811 12.52C18.9937 12.3483 19.0001 12.1749 19.0001 12C19.0001 11.8251 18.9937 11.6517 18.9811 11.48C18.9325 10.8188 19.2043 10.15 19.7785 9.8185L19.9109 9.74205C20.3149 9.50876 20.5095 9.0245 20.3327 8.5927C20.0221 7.83379 19.6108 7.12676 19.1154 6.4882C18.8294 6.11955 18.3128 6.04588 17.9088 6.27917L17.778 6.35469C17.2034 6.68641 16.4877 6.58685 15.9397 6.213C15.6548 6.01871 15.3549 5.8449 15.042 5.69369C14.4444 5.40495 14.0001 4.8349 14.0001 4.17127V4.02152Z" stroke="#101828" stroke-width="1.5"/>
</svg>
