<svg width="18" height="16" viewBox="0 0 18 16" fill="none" xmlns="http://www.w3.org/2000/svg">
<path d="M2.33333 5.00953C2.36866 4.4143 2.41603 3.79624 2.47649 3.14277C2.55792 2.26254 3.26085 1.56905 4.14111 1.49318C4.79289 1.43701 5.40878 1.39092 6.00154 1.35493C6.12754 1.34728 6.25249 1.34008 6.37652 1.33334M12.0006 1.35282C12.5941 1.3887 13.2101 1.43485 13.8614 1.49126C14.746 1.56787 15.4499 2.26833 15.5281 3.15322C15.5856 3.80241 15.6316 4.41692 15.6667 5.00953M2.36465 11.0102C2.40132 11.5958 2.44628 12.2026 2.49853 12.8428C2.57175 13.7398 3.28036 14.4563 4.17667 14.5327C4.81449 14.5871 5.41867 14.6318 6.00154 14.6667M12.0006 14.6657C12.5871 14.6307 13.1962 14.5859 13.8402 14.5312C14.7343 14.4554 15.4429 13.7428 15.517 12.848C15.5702 12.205 15.6148 11.5964 15.6504 11.0102M1.5 8.00001H16.5M6.61699 11.2211C8.37199 11.3707 9.61112 11.3711 11.3888 11.2203C11.8303 11.1829 12.1802 10.831 12.2168 10.3892C12.3639 8.61087 12.3783 7.36568 12.2223 5.60215C12.1836 5.16521 11.8361 4.81934 11.3993 4.78151C9.62683 4.62802 8.38622 4.62847 6.59944 4.78246C6.16476 4.81992 5.81766 5.16235 5.77745 5.59698C5.61268 7.37799 5.64465 8.62628 5.78834 10.3866C5.82449 10.8295 6.1744 11.1833 6.61699 11.2211Z" stroke="white" stroke-width="1.5" stroke-linecap="round"/>
</svg>
