<svg width="19" height="18" viewBox="0 0 19 18" fill="none" xmlns="http://www.w3.org/2000/svg">
<path d="M16.2431 11.5C16.3685 11.5 16.463 11.6144 16.4359 11.7368C15.6427 15.32 12.4468 18 8.625 18C4.20672 18 0.625 14.4183 0.625 10C0.625 6.17815 3.30498 2.98225 6.88819 2.18905C7.01062 2.16195 7.125 2.2565 7.125 2.3819V9.30725C7.125 10.5183 8.10673 11.5 9.31775 11.5H16.2431Z" fill="#ACDC79"/>
<path d="M17.0587 10C17.9902 10 18.7597 9.2397 18.6051 8.32106C18.4788 7.57008 18.2678 6.83398 17.975 6.1271C17.4664 4.89924 16.721 3.78357 15.7812 2.84381C14.8414 1.90404 13.7258 1.15858 12.4979 0.649986C11.791 0.357186 11.0549 0.146192 10.3039 0.0198559C9.3853 -0.134687 8.625 0.634793 8.625 1.56635V8.31327C8.625 9.24482 9.38017 10 10.3117 10H17.0587Z" fill="#ACDC79"/>
</svg>
