<svg width="20" height="20" viewBox="0 0 20 20" fill="none" xmlns="http://www.w3.org/2000/svg">
<path d="M2.74932 4.5927C2.83981 3.61477 3.62096 2.84432 4.59918 2.76002C8.62029 2.41354 11.4123 2.41253 15.4011 2.75789C16.3841 2.843 17.1663 3.6212 17.2533 4.60432C17.6044 8.57226 17.572 11.374 17.2409 15.3752C17.1586 16.3692 16.3712 17.161 15.3775 17.2452C11.3769 17.5844 8.58826 17.5836 4.63869 17.2469C3.64264 17.1619 2.85518 16.366 2.77381 15.3693C2.45046 11.4086 2.3785 8.59997 2.74932 4.5927Z" stroke="#475467" stroke-width="1.5"/>
<path d="M8.125 10.6665C9.04898 11.9064 10.3609 12.8393 11.875 13.3332M8.125 13.3332C11.875 12.4443 11.875 7.99984 11.875 7.99984M6.25 7.99984H10M10 7.99984H13.75M10 7.99984V6.6665" stroke="#475467" stroke-width="1.5" stroke-linecap="round"/>
</svg>
