<svg width="20" height="20" viewBox="0 0 20 20" fill="none" xmlns="http://www.w3.org/2000/svg">
<path d="M12.9167 5.41667C12.9167 7.0275 11.6108 8.33333 9.99999 8.33333C8.38916 8.33333 7.08333 7.0275 7.08333 5.41667C7.08333 3.80584 8.38916 2.5 9.99999 2.5C11.6108 2.5 12.9167 3.80584 12.9167 5.41667Z" stroke="#475467" stroke-width="1.5"/>
<path d="M4.52011 14.5748C4.80578 12.5956 6.33805 10.9782 8.33248 10.8329C9.47199 10.7499 10.532 10.7498 11.6693 10.8325C13.6629 10.9774 15.1941 12.5947 15.4796 14.5731L15.5352 14.9579C15.6998 16.0982 14.9076 17.1625 13.7621 17.2853C11.0737 17.5736 8.93509 17.5703 6.24267 17.2831C5.09537 17.1607 4.30063 16.0955 4.46545 14.9535L4.52011 14.5748Z" stroke="#475467" stroke-width="1.5"/>
</svg>
