<svg width="60" height="60" viewBox="0 0 60 60" fill="none" xmlns="http://www.w3.org/2000/svg">
<rect x="0.5" y="0.5" width="59" height="59" rx="29.5" fill="#FEF0C7"/>
<rect x="0.5" y="0.5" width="59" height="59" rx="29.5" stroke="#FEDF89"/>
<g filter="url(#filter0_f_595_6341)">
<circle cx="30" cy="38" r="6" fill="#3A3203" fill-opacity="0.5"/>
</g>
<path d="M18.5572 41.501C17.4462 41.501 16.4512 40.9265 15.8957 39.9643C15.3401 39.0021 15.3401 37.8532 15.8957 36.891L27.5149 16.7659C28.0705 15.8036 29.0655 15.2292 30.1765 15.2292C31.2876 15.2292 32.2825 15.8036 32.8381 16.7659L44.4573 36.891C45.0129 37.8532 45.0129 39.0021 44.4573 39.9644C43.9018 40.9265 42.9068 41.501 41.7958 41.501L18.5572 41.501Z" fill="#FEDA12"/>
<path d="M41.7957 40.1959H18.5572C17.9387 40.1959 17.3849 39.8761 17.0757 39.3405C16.7664 38.8049 16.7664 38.1654 17.0757 37.6298L28.6949 17.5047C29.0041 16.9691 29.558 16.6493 30.1764 16.6493C30.7949 16.6493 31.3487 16.9691 31.6579 17.5047L43.2772 37.6298C43.5864 38.1654 43.5864 38.8049 43.2772 39.3405C42.968 39.8761 42.4141 40.1959 41.7957 40.1959ZM30.1764 17.2782C29.7854 17.2782 29.4351 17.4804 29.2396 17.8191L17.6203 37.9443C17.4248 38.283 17.4248 38.6874 17.6203 39.0261C17.8159 39.3648 18.1661 39.567 18.5572 39.567H41.7957C42.1868 39.567 42.537 39.3648 42.7325 39.0261C42.9281 38.6874 42.9281 38.283 42.7325 37.9443L31.1133 17.8192C30.9177 17.4804 30.5675 17.2782 30.1764 17.2782Z" fill="#101828"/>
<path d="M30.1763 37.9087C31.2183 37.9087 32.063 37.0639 32.063 36.0219C32.063 34.9799 31.2183 34.1352 30.1763 34.1352C29.1343 34.1352 28.2896 34.9799 28.2896 36.0219C28.2896 37.0639 29.1343 37.9087 30.1763 37.9087Z" fill="#101828"/>
<path d="M28.2896 23.9678C28.2896 22.9258 29.1343 22.0811 30.1763 22.0811C31.2183 22.0811 32.063 22.9258 32.063 23.9678L31.172 32.196C31.172 32.746 30.7262 33.1918 30.1763 33.1918C29.6263 33.1918 29.1805 32.746 29.1805 32.196L28.2896 23.9678Z" fill="#101828"/>
<defs>
<filter id="filter0_f_595_6341" x="9" y="17" width="42" height="42" filterUnits="userSpaceOnUse" color-interpolation-filters="sRGB">
<feFlood flood-opacity="0" result="BackgroundImageFix"/>
<feBlend mode="normal" in="SourceGraphic" in2="BackgroundImageFix" result="shape"/>
<feGaussianBlur stdDeviation="7.5" result="effect1_foregroundBlur_595_6341"/>
</filter>
</defs>
</svg>
